<?xml version="1.0" standalone="yes"?>
<svg xmlns="http://www.w3.org/2000/svg" width="978" height="920">
<path style="fill:#ffffff; stroke:none;" d="M0 0L0 920L978 920L978 0L0 0z"/>
<path style="fill:#010101; stroke:none;" d="M2 2L2 852L919 852L919 2L2 2z"/>
<path style="fill:#3f4193; stroke:none;" d="M521 130L504.996 141.258L484 137L490.163 156L480 174C485.682 172.647 495.464 171.316 500.675 174.573C506.797 178.398 509.141 185.799 516 189C519.206 172.479 525.19 168.453 541 164L524.028 150.674L521 130M621 148L604 159.393L584 155L590.23 174L580 192C585.963 190.893 595.535 189.17 600.911 192.742C606.786 196.647 609 204.749 616 207C619.36 189.674 624.856 187.162 641 182L624.027 168.674L621 148z"/>
<path style="fill:#a76c3f; stroke:none;" d="M513 188L514 189L513 188z"/>
<path style="fill:#3f4193; stroke:none;" d="M521 229L526.778 248L517 266C522.88 264.908 532.564 263.127 537.829 266.742C543.73 270.794 545.776 278.881 553 281C555.188 264.057 561.726 260.968 577 256L561.603 243.621L559 223L542 233.168L521 229z"/>
<path style="fill:#a76c3f; stroke:none;" d="M553 225L554 226L553 225z"/>
<path style="fill:#f48736; stroke:none;" d="M535 324C534.392 338.162 532.147 353.542 527.623 367C524.026 377.701 519.025 386.748 512.518 395.961C482.48 438.492 423.134 430.472 380 417.04C365.625 412.564 351.713 405.045 337 402L337 403C377.671 431.25 417.7 467.782 442.421 511C453.552 530.459 463.368 556.118 461.91 579C459.822 611.764 443.446 634.154 431 663C449.214 651.729 465.243 635.008 479.285 619C530.362 560.771 553.894 491.709 552.015 415C551.426 390.964 547.889 367.065 540.971 344C539.027 337.519 538.195 329.966 535 324z"/>
<path style="fill:#3f4193; stroke:none;" d="M534 325L534 330L535 330L534 325M536.333 326.667L536.667 327.333L536.333 326.667M537 330L538 331L537 330z"/>
<path style="fill:#a76c3f; stroke:none;" d="M537 331L538 332L537 331z"/>
<path style="fill:#3f4193; stroke:none;" d="M533.333 334.667L533.667 335.333L533.333 334.667z"/>
<path style="fill:#a76c3f; stroke:none;" d="M538.333 334.667L538.667 335.333L538.333 334.667M533 336L533 339L534 339L533 336z"/>
<path style="fill:#3f4193; stroke:none;" d="M540.333 340.667L540.667 341.333L540.333 340.667M532 342L533 343L532 342z"/>
<path style="fill:#a76c3f; stroke:none;" d="M540 342L541 343L540 342M532 343L532 347L533 347L532 343M541 344L541 347L542 347L541 344z"/>
<path style="fill:#3f4193; stroke:none;" d="M445 346.518C404.189 355.172 416.041 417.475 457 409.624C496.971 401.963 485.306 337.97 445 346.518z"/>
<path style="fill:#a76c3f; stroke:none;" d="M438 348L439 349L438 348M531 350L532 351L531 350z"/>
<path style="fill:#3f4193; stroke:none;" d="M530.333 354.667L530.667 355.333L530.333 354.667M544.333 355.667L544.667 356.333L544.333 355.667z"/>
<path style="fill:#a76c3f; stroke:none;" d="M529.333 359.667L529.667 360.333L529.333 359.667M545.333 360.667L545.667 361.333L545.333 360.667M528 363L528 366L529 366L528 363z"/>
<path style="fill:#3f4193; stroke:none;" d="M547 368L547 371L548 371L547 368M526.333 369.667L526.667 370.333L526.333 369.667z"/>
<path style="fill:#a76c3f; stroke:none;" d="M547 371L548 372L547 371z"/>
<path style="fill:#3f4193; stroke:none;" d="M525 372L526 373L525 372z"/>
<path style="fill:#a76c3f; stroke:none;" d="M525.333 373.667L525.667 374.333L525.333 373.667z"/>
<path style="fill:#3f4193; stroke:none;" d="M548 374L549 375L548 374z"/>
<path style="fill:#a76c3f; stroke:none;" d="M524 375L525 376L524 375M548 375L548 378L549 378L548 375z"/>
<path style="fill:#3f4193; stroke:none;" d="M523 377L524 378L523 377M522 379L523 380L522 379z"/>
<path style="fill:#a76c3f; stroke:none;" d="M522 380L523 381L522 380M521 382L522 383L521 382M549 382L549 386L550 386L549 382z"/>
<path style="fill:#3f4193; stroke:none;" d="M519 385L520 386L519 385z"/>
<path style="fill:#a76c3f; stroke:none;" d="M518 387L519 388L518 387M517 389L518 390L517 389M516 390L517 391L516 390M514 393L515 394L514 393z"/>
<path style="fill:#3f4193; stroke:none;" d="M551 396L551 402L552 402L551 396M511 397L512 398L511 397M510 398L511 399L510 398z"/>
<path style="fill:#a76c3f; stroke:none;" d="M510 399L511 400L510 399z"/>
<path style="fill:#3f4193; stroke:none;" d="M335 401L336 402L335 401z"/>
<path style="fill:#a76c3f; stroke:none;" d="M336.667 401.333L337.333 401.667L336.667 401.333M508 401L509 402L508 401M339 402L340 403L339 402z"/>
<path style="fill:#3f4193; stroke:none;" d="M340 402L341 403L340 402M507 402L508 403L507 402M343 403L344 404L343 403z"/>
<path style="fill:#a76c3f; stroke:none;" d="M339 404L340 405L339 404M340 405L341 406L340 405M348 405L349 406L348 405z"/>
<path style="fill:#3f4193; stroke:none;" d="M504 405L505 406L504 405z"/>
<path style="fill:#a76c3f; stroke:none;" d="M341.667 406.333L342.333 406.667L341.667 406.333M350 406L351 407L350 406z"/>
<path style="fill:#3f4193; stroke:none;" d="M351 406L352 407L351 406M503 406L504 407L503 406M353 407L354 408L353 407z"/>
<path style="fill:#a76c3f; stroke:none;" d="M355 408L356 409L355 408z"/>
<path style="fill:#3f4193; stroke:none;" d="M345 409L346 410L345 409z"/>
<path style="fill:#a76c3f; stroke:none;" d="M358.667 409.333L359.333 409.667L358.667 409.333M500 409L501 410L500 409z"/>
<path style="fill:#3f4193; stroke:none;" d="M552 409L553 410L552 409M346 410L347 411L346 410M361.667 410.333L362.333 410.667L361.667 410.333z"/>
<path style="fill:#a76c3f; stroke:none;" d="M499 410L500 411L499 410M552 410L552 421L553 421L552 410z"/>
<path style="fill:#3f4193; stroke:none;" d="M347 411L348 412L347 411M364 411L365 412L364 411z"/>
<path style="fill:#a76c3f; stroke:none;" d="M349 412L350 413L349 412M365.667 412.333L366.333 412.667L365.667 412.333z"/>
<path style="fill:#3f4193; stroke:none;" d="M496 412L497 413L496 412z"/>
<path style="fill:#a76c3f; stroke:none;" d="M350 413L351 414L350 413M369 413L370 414L369 413z"/>
<path style="fill:#3f4193; stroke:none;" d="M370 413L371 414L370 413M351 414L352 415L351 414z"/>
<path style="fill:#a76c3f; stroke:none;" d="M372 414L373 415L372 414z"/>
<path style="fill:#3f4193; stroke:none;" d="M373 414L374 415L373 414M493 414L494 415L493 414z"/>
<path style="fill:#a76c3f; stroke:none;" d="M354 416L355 417L354 416M377.667 416.333L378.333 416.667L377.667 416.333M490 416L491 417L490 416M355 417L356 418L355 417z"/>
<path style="fill:#3f4193; stroke:none;" d="M381.667 417.333L382.333 417.667L381.667 417.333M488 417L489 418L488 417z"/>
<path style="fill:#a76c3f; stroke:none;" d="M356 418L357 419L356 418z"/>
<path style="fill:#3f4193; stroke:none;" d="M385 418L386 419L385 418M486 418L487 419L486 418z"/>
<path style="fill:#a76c3f; stroke:none;" d="M389 419L390 420L389 419M484 419L485 420L484 419M391 420L391 421L394 421L391 420z"/>
<path style="fill:#3f4193; stroke:none;" d="M481 420L482 421L481 420z"/>
<path style="fill:#a76c3f; stroke:none;" d="M482 420L483 421L482 420M360 421L361 422L360 421M395 421L396 422L395 421z"/>
<path style="fill:#3f4193; stroke:none;" d="M396.667 421.333L397.333 421.667L396.667 421.333M479 421L480 422L479 421z"/>
<path style="fill:#a76c3f; stroke:none;" d="M480 421L481 422L480 421M361 422L362 423L361 422z"/>
<path style="fill:#3f4193; stroke:none;" d="M401 422L402 423L401 422z"/>
<path style="fill:#a76c3f; stroke:none;" d="M404 423L404 424L407 424L404 423M473.667 423.333L474.333 423.667L473.667 423.333M410 424L410 425L413 425L410 424z"/>
<path style="fill:#3f4193; stroke:none;" d="M469 424L470 425L469 424z"/>
<path style="fill:#a76c3f; stroke:none;" d="M470 424L471 425L470 424z"/>
<path style="fill:#3f4193; stroke:none;" d="M417 425L417 426L420 426L417 425M464.667 425.333L465.333 425.667L464.667 425.333z"/>
<path style="fill:#a76c3f; stroke:none;" d="M425 426L426 427L425 426z"/>
<path style="fill:#3f4193; stroke:none;" d="M367 427L368 428L367 427z"/>
<path style="fill:#a76c3f; stroke:none;" d="M431 427L431 428L454 428L431 427z"/>
<path style="fill:#3f4193; stroke:none;" d="M368 428L369 429L368 428z"/>
<path style="fill:#a76c3f; stroke:none;" d="M369 428L370 429L369 428M370 429L371 430L370 429z"/>
<path style="fill:#3f4193; stroke:none;" d="M373 432L374 433L373 432z"/>
<path style="fill:#a76c3f; stroke:none;" d="M375 433L376 434L375 433z"/>
<path style="fill:#3f4193; stroke:none;" d="M377 435L378 436L377 435z"/>
<path style="fill:#a76c3f; stroke:none;" d="M552 436L552 449L553 449L552 436z"/>
<path style="fill:#3f4193; stroke:none;" d="M381 438L382 439L381 438M382 439L383 440L382 439z"/>
<path style="fill:#a76c3f; stroke:none;" d="M383 440L384 441L383 440M387 443L388 444L387 443M388 444L389 445L388 444z"/>
<path style="fill:#3f4193; stroke:none;" d="M389 446L390 447L389 446z"/>
<path style="fill:#a76c3f; stroke:none;" d="M390 447L391 448L390 447M391 448L392 449L391 448z"/>
<path style="fill:#3f4193; stroke:none;" d="M392 449L393 450L392 449M393 450L394 451L393 450z"/>
<path style="fill:#a76c3f; stroke:none;" d="M394.667 451.333L395.333 451.667L394.667 451.333z"/>
<path style="fill:#3f4193; stroke:none;" d="M396 453L397 454L396 453M397 454L398 455L397 454z"/>
<path style="fill:#a76c3f; stroke:none;" d="M398 455L399 456L398 455z"/>
<path style="fill:#3f4193; stroke:none;" d="M399 456L400 457L399 456M551 456L551 462L552 462L551 456M400 457L401 458L400 457z"/>
<path style="fill:#a76c3f; stroke:none;" d="M402 459L403 460L402 459z"/>
<path style="fill:#3f4193; stroke:none;" d="M403 460L404 461L403 460M404 461L405 462L404 461M372 462C376.565 474.581 384.376 486.262 384.961 500C386.817 543.621 338.559 564.175 307 581L307 582C343.022 581.976 386.616 569.965 410.301 607C413.786 612.449 415.907 618.682 417.193 625C419.657 637.105 420 649.68 420 662L421 662C441.821 608.027 441.027 552.007 409.529 502C399.968 486.822 387.867 471.134 372 462z"/>
<path style="fill:#a76c3f; stroke:none;" d="M406.333 462.667L406.667 463.333L406.333 462.667z"/>
<path style="fill:#3f4193; stroke:none;" d="M407 464L408 465L407 464M408 465L409 466L408 465z"/>
<path style="fill:#a76c3f; stroke:none;" d="M409 466L410 467L409 466z"/>
<path style="fill:#3f4193; stroke:none;" d="M410 467L411 468L410 467M411 468L412 469L411 468z"/>
<path style="fill:#a76c3f; stroke:none;" d="M412 469L413 470L412 469M382 470L383 471L382 470M413 470L414 471L413 470M414 471L415 472L414 471M549 471L549 475L550 475L549 471z"/>
<path style="fill:#3f4193; stroke:none;" d="M626 472C578.04 497.15 540.397 540.996 532.428 596C529.403 616.882 531.356 636.165 533 657L534 657C536.287 645.92 539.196 634.499 543.453 624C545.903 617.956 549.343 612.129 553.579 607.171C582.911 572.835 626.217 595.505 661 605C654.884 596.691 644.685 590.611 637.17 583.424C618.244 565.323 599.458 538.768 604.465 511C606.045 502.236 610.814 493.956 616.215 487C619.625 482.607 625.42 477.739 626 472z"/>
<path style="fill:#a76c3f; stroke:none;" d="M419 477L420 478L419 477M420 478L421 479L420 478M548 478L548 481L549 481L548 478M421 479L422 480L421 479z"/>
<path style="fill:#3f4193; stroke:none;" d="M421 480L422 481L421 480z"/>
<path style="fill:#a76c3f; stroke:none;" d="M424 483L425 484L424 483M425 484L426 485L425 484M547 484L548 485L547 484M426 485L427 486L426 485z"/>
<path style="fill:#3f4193; stroke:none;" d="M547.333 485.667L547.667 486.333L547.333 485.667z"/>
<path style="fill:#a76c3f; stroke:none;" d="M602 485L603 486L602 485M428 488L429 489L428 488z"/>
<path style="fill:#3f4193; stroke:none;" d="M429 490L430 491L429 490z"/>
<path style="fill:#a76c3f; stroke:none;" d="M430 491L431 492L430 491M545 492L545 495L546 495L545 492M431 493L432 494L431 493M337 494L337 495L340 495L337 494z"/>
<path style="fill:#f48736; stroke:none;" d="M340 494.465C310.455 499.791 318.491 544.524 348 538.621C376.392 532.941 369.032 489.23 340 494.465z"/>
<path style="fill:#a76c3f; stroke:none;" d="M350.667 494.333L351.333 494.667L350.667 494.333M432 494L433 495L432 494z"/>
<path style="fill:#3f4193; stroke:none;" d="M334 495L335 496L334 495z"/>
<path style="fill:#a76c3f; stroke:none;" d="M335 495L336 496L335 495M353 495L354 496L353 495z"/>
<path style="fill:#3f4193; stroke:none;" d="M354 495L355 496L354 495M332 496L333 497L332 496z"/>
<path style="fill:#a76c3f; stroke:none;" d="M355 496L356 497L355 496z"/>
<path style="fill:#3f4193; stroke:none;" d="M356 496L357 497L356 496M433 496L434 497L433 496M357 497L358 498L357 497M328 498L329 499L328 498z"/>
<path style="fill:#a76c3f; stroke:none;" d="M329 498L330 499L329 498z"/>
<path style="fill:#3f4193; stroke:none;" d="M358 498L359 499L358 498z"/>
<path style="fill:#a76c3f; stroke:none;" d="M435 498L436 499L435 498z"/>
<path style="fill:#3f4193; stroke:none;" d="M544.333 498.667L544.667 499.333L544.333 498.667M327 499L328 500L327 499M435 499L436 500L435 499z"/>
<path style="fill:#a76c3f; stroke:none;" d="M436 500L437 501L436 500z"/>
<path style="fill:#3f4193; stroke:none;" d="M325 501L326 502L325 501M361 501L362 502L361 501M362 502L363 503L362 502M437 502L438 503L437 502M543 502L544 503L543 502z"/>
<path style="fill:#a76c3f; stroke:none;" d="M324 503L325 504L324 503M362 503L363 504L362 503M323 505L324 506L323 505M439 505L440 506L439 505M542 505L543 506L542 505M364 506L365 507L364 506z"/>
<path style="fill:#3f4193; stroke:none;" d="M440 507L441 508L440 507M365 508L366 509L365 508z"/>
<path style="fill:#a76c3f; stroke:none;" d="M541.333 508.667L541.667 509.333L541.333 508.667z"/>
<path style="fill:#3f4193; stroke:none;" d="M321 509L322 510L321 509M634 509L635 510L634 509z"/>
<path style="fill:#a76c3f; stroke:none;" d="M635 509L635 510L638 510L635 509z"/>
<path style="fill:#f48736; stroke:none;" d="M638 509.454C609.304 513.268 614.938 558.548 644 554.546C672.053 550.682 666.661 505.644 638 509.454z"/>
<path style="fill:#a76c3f; stroke:none;" d="M643 509L643 510L646 510L643 509M321 510L322 511L321 510z"/>
<path style="fill:#3f4193; stroke:none;" d="M541 510L542 511L541 510z"/>
<path style="fill:#a76c3f; stroke:none;" d="M632 510L633 511L632 510z"/>
<path style="fill:#3f4193; stroke:none;" d="M648.667 510.333L649.333 510.667L648.667 510.333z"/>
<path style="fill:#a76c3f; stroke:none;" d="M366 512L366 521L367 521L366 512M443 512L444 513L443 512z"/>
<path style="fill:#3f4193; stroke:none;" d="M540 512L541 513L540 512M652 512L653 513L652 512M320 513L321 514L320 513z"/>
<path style="fill:#a76c3f; stroke:none;" d="M627 513L628 514L627 513M320 514L320 520L321 520L320 514M444 514L445 515L444 514z"/>
<path style="fill:#3f4193; stroke:none;" d="M625 514L626 515L625 514z"/>
<path style="fill:#a76c3f; stroke:none;" d="M626 514L627 515L626 514z"/>
<path style="fill:#3f4193; stroke:none;" d="M655 514L656 515L655 514M444 515L445 516L444 515M624 515L625 516L624 515z"/>
<path style="fill:#a76c3f; stroke:none;" d="M656 515L657 516L656 515z"/>
<path style="fill:#3f4193; stroke:none;" d="M445 516L446 517L445 516M623 516L624 517L623 516z"/>
<path style="fill:#a76c3f; stroke:none;" d="M657 516L658 517L657 516M623 517L624 518L623 517M538 518L539 519L538 518M622 518L623 519L622 518M447 520L448 521L447 520M621 520L622 521L621 520M660 520L661 521L660 520z"/>
<path style="fill:#3f4193; stroke:none;" d="M366 521L367 522L366 521M447 521L448 522L447 521z"/>
<path style="fill:#a76c3f; stroke:none;" d="M537 521L538 522L537 521z"/>
<path style="fill:#3f4193; stroke:none;" d="M620 521L621 522L620 521z"/>
<path style="fill:#a76c3f; stroke:none;" d="M321 522L322 523L321 522M448 522L449 523L448 522z"/>
<path style="fill:#3f4193; stroke:none;" d="M537 522L538 523L537 522z"/>
<path style="fill:#a76c3f; stroke:none;" d="M661.333 522.667L661.667 523.333L661.333 522.667z"/>
<path style="fill:#3f4193; stroke:none;" d="M321 523L322 524L321 523M448 523L449 524L448 523M619.333 523.667L619.667 524.333L619.333 523.667M365.333 524.667L365.667 525.333L365.333 524.667z"/>
<path style="fill:#a76c3f; stroke:none;" d="M536 524L537 525L536 524M662 525L663 526L662 525M378 526L379 527L378 526M450.333 526.667L450.667 527.333L450.333 526.667M323 527L324 528L323 527M618 527L618 532L619 532L618 527z"/>
<path style="fill:#3f4193; stroke:none;" d="M323 528L324 529L323 528z"/>
<path style="fill:#a76c3f; stroke:none;" d="M324 529L325 530L324 529M362 529L363 530L362 529M451 529L452 530L451 529M534 529L535 530L534 529z"/>
<path style="fill:#3f4193; stroke:none;" d="M451 530L452 531L451 530M663 530L663 533L664 533L663 530M452 532L453 533L452 532z"/>
<path style="fill:#a76c3f; stroke:none;" d="M533 532L534 533L533 532M327 533L328 534L327 533M358 533L359 534L358 533z"/>
<path style="fill:#3f4193; stroke:none;" d="M328 534L329 535L328 534z"/>
<path style="fill:#a76c3f; stroke:none;" d="M618 534L618 538L619 538L618 534z"/>
<path style="fill:#3f4193; stroke:none;" d="M329 535L330 536L329 535M356 535L357 536L356 535M453 535L454 536L453 535M532 535L533 536L532 535M331 536L332 537L331 536M354 536L355 537L354 536z"/>
<path style="fill:#a76c3f; stroke:none;" d="M454.333 536.667L454.667 537.333L454.333 536.667M334 537L335 538L334 537M351.667 537.333L352.333 537.667L351.667 537.333M531 537L532 538L531 537M662 537L663 538L662 537z"/>
<path style="fill:#3f4193; stroke:none;" d="M336 538L337 539L336 538M349 538L350 539L349 538M340 539L340 540L346 540L340 539z"/>
<path style="fill:#a76c3f; stroke:none;" d="M530 539L531 540L530 539M619 539L620 540L619 539M661.333 539.667L661.667 540.333L661.333 539.667z"/>
<path style="fill:#3f4193; stroke:none;" d="M455 540L456 541L455 540M619 540L620 541L619 540M620 542L621 543L620 542z"/>
<path style="fill:#a76c3f; stroke:none;" d="M660 542L661 543L660 542M659 544L660 545L659 544M527 545L528 546L527 545M622 545L623 546L622 545M457 546L457 549L458 549L457 546z"/>
<path style="fill:#3f4193; stroke:none;" d="M527 546L528 547L527 546z"/>
<path style="fill:#a76c3f; stroke:none;" d="M623 546L624 547L623 546M526.333 547.667L526.667 548.333L526.333 547.667M657 547L658 548L657 547M625 548L626 549L625 548M610 549L611 550L610 549M626 549L627 550L626 549M458 550L458 554L459 554L458 550M525 550L526 551L525 550M627 550L628 551L627 550z"/>
<path style="fill:#3f4193; stroke:none;" d="M654 550L655 551L654 550z"/>
<path style="fill:#a76c3f; stroke:none;" d="M652 551L653 552L652 551z"/>
<path style="fill:#3f4193; stroke:none;" d="M653 551L654 552L653 551z"/>
<path style="fill:#a76c3f; stroke:none;" d="M631 552L632 553L631 552M633 553L634 554L633 553M649 553L650 554L649 553M523 554L524 555L523 554z"/>
<path style="fill:#3f4193; stroke:none;" d="M635 554L635 555L638 555L635 554z"/>
<path style="fill:#a76c3f; stroke:none;" d="M638 554L639 555L638 554M644 554L645 555L644 554z"/>
<path style="fill:#3f4193; stroke:none;" d="M645.667 554.333L646.333 554.667L645.667 554.333z"/>
<path style="fill:#a76c3f; stroke:none;" d="M522 556L523 557L522 556z"/>
<path style="fill:#3f4193; stroke:none;" d="M459 557L459 560L460 560L459 557z"/>
<path style="fill:#a76c3f; stroke:none;" d="M521 558L522 559L521 558M519 561L520 562L519 561z"/>
<path style="fill:#3f4193; stroke:none;" d="M519 562L520 563L519 562M517 565L518 566L517 565z"/>
<path style="fill:#a76c3f; stroke:none;" d="M516 567L517 568L516 567M515 568L516 569L515 568M514 570L515 571L514 570M461 571L461 583L462 583L461 571z"/>
<path style="fill:#3f4193; stroke:none;" d="M514 571L515 572L514 571z"/>
<path style="fill:#a76c3f; stroke:none;" d="M625 571L626 572L625 571z"/>
<path style="fill:#3f4193; stroke:none;" d="M513 572L514 573L513 572z"/>
<path style="fill:#a76c3f; stroke:none;" d="M512 574L513 575L512 574M511 575L512 576L511 575z"/>
<path style="fill:#3f4193; stroke:none;" d="M510 577L511 578L510 577z"/>
<path style="fill:#a76c3f; stroke:none;" d="M508 580L509 581L508 580M507 581L508 582L507 581z"/>
<path style="fill:#3f4193; stroke:none;" d="M507 582L508 583L507 582M506 583L507 584L506 583z"/>
<path style="fill:#a76c3f; stroke:none;" d="M505 585L506 586L505 585M504 586L505 587L504 586z"/>
<path style="fill:#3f4193; stroke:none;" d="M503 588L504 589L503 588M460 589L461 590L460 589z"/>
<path style="fill:#a76c3f; stroke:none;" d="M502 589L503 590L502 589z"/>
<path style="fill:#3f4193; stroke:none;" d="M500 592L501 593L500 592M459 593L459 597L460 597L459 593z"/>
<path style="fill:#a76c3f; stroke:none;" d="M497 596L498 597L497 596z"/>
<path style="fill:#3f4193; stroke:none;" d="M495 599L496 600L495 599M458 600L459 601L458 600z"/>
<path style="fill:#a76c3f; stroke:none;" d="M494 600L495 601L494 600M458.333 601.667L458.667 602.333L458.333 601.667M493 601L494 602L493 601z"/>
<path style="fill:#3f4193; stroke:none;" d="M492 603L493 604L492 603M491 604L492 605L491 604z"/>
<path style="fill:#a76c3f; stroke:none;" d="M457.333 605.667L457.667 606.333L457.333 605.667M489 606L490 607L489 606z"/>
<path style="fill:#3f4193; stroke:none;" d="M488 608L489 609L488 608M487 609L488 610L487 609M486 610L487 611L486 610M455 612L456 613L455 612z"/>
<path style="fill:#a76c3f; stroke:none;" d="M454.333 615.667L454.667 616.333L454.333 615.667M481 616L482 617L481 616z"/>
<path style="fill:#3f4193; stroke:none;" d="M480 617L481 618L480 617M453 618L454 619L453 618z"/>
<path style="fill:#a76c3f; stroke:none;" d="M479 618L480 619L479 618M478 619L479 620L478 619z"/>
<path style="fill:#3f4193; stroke:none;" d="M452 621L453 622L452 621M451 623L452 624L451 623z"/>
<path style="fill:#a76c3f; stroke:none;" d="M451 624L452 625L451 624M450 626L451 627L450 626z"/>
<path style="fill:#3f4193; stroke:none;" d="M470 628L471 629L470 628M448 630L449 631L448 630z"/>
<path style="fill:#a76c3f; stroke:none;" d="M468 630L469 631L468 630z"/>
<path style="fill:#3f4193; stroke:none;" d="M447 632L448 633L447 632z"/>
<path style="fill:#a76c3f; stroke:none;" d="M466 632L467 633L466 632M447 633L448 634L447 633M465 633L466 634L465 633M464 634L465 635L464 634M446 635L447 636L446 635M463 635L464 636L463 635M462 636L463 637L462 636z"/>
<path style="fill:#3f4193; stroke:none;" d="M295 637L295 638L299 638L295 637z"/>
<path style="fill:#a76c3f; stroke:none;" d="M461 637L462 638L461 637z"/>
<path style="fill:#3f4193; stroke:none;" d="M574.667 637.333L575.333 637.667L574.667 637.333z"/>
<path style="fill:#f48736; stroke:none;" d="M218 700L253.576 661L269 642C257.1 643.583 243.241 659.817 235.001 667.996C218.856 684.02 201.908 699.608 185 714.831C175.974 722.958 165.201 731.216 158 741C170.649 739.889 183.749 733.603 196.015 730.194C215.387 724.811 235.98 721.108 256 719.17C297.125 715.187 339.712 717.836 380 726.815C396.617 730.518 412.419 737.534 429 741L429 740C407.09 723.773 383.304 713.808 357 707C364.377 704.49 373.646 707.722 381 709.525C397.029 713.456 412.935 719.673 429 723C409.825 699.445 374.707 698.918 349 688C375.036 683.856 404.449 697.299 429 704C422.788 693.761 405.662 688.562 395 684.576C364.924 673.33 332.643 671.582 301 676.131C286.909 678.157 269.941 685.796 256 685C268.302 669.891 289.825 655.531 298 638C289.879 639.094 283.908 647.241 278.174 652.536C265.743 664.014 253.849 676.235 241.015 687.246C233.499 693.694 228.574 699.753 218 700z"/>
<path style="fill:#a76c3f; stroke:none;" d="M298 638L299 639L298 638z"/>
<path style="fill:#3f4193; stroke:none;" d="M444 638L445 639L444 638z"/>
<path style="fill:#a76c3f; stroke:none;" d="M574 638L575 639L574 638z"/>
<path style="fill:#f48736; stroke:none;" d="M575 638C583.659 655.866 610.559 666.728 616 686C572.399 675.23 532.214 669.999 488 680.964C474.684 684.267 450.958 691.09 444 704C473.539 695.455 502.853 685.749 534 687L534 688C510.823 689.832 486.393 696.561 466 707.695C458.448 711.819 450.194 715.948 445 723L492 709.576L518 706C494.377 717.434 462.586 718.076 445 741C462.946 737.248 480.046 729.891 498 725.884C531.89 718.32 567.423 715.722 602 718.089C622.534 719.496 644.024 722.128 664 727.286C680.787 731.619 697.83 738.686 715 741C709.564 731.166 697.898 723.86 690 715.999C670.376 696.469 650.027 674.599 627.985 657.845C620.277 651.986 613.858 644.134 604 642L656 700C638.821 699.856 627.362 683.098 616 672.015C609.92 666.084 602.999 661.038 597.039 654.986C590.583 648.429 584.405 640.21 575 638z"/>
<path style="fill:#a76c3f; stroke:none;" d="M292 639L293 640L292 639M579 639L580 640L579 639z"/>
<path style="fill:#3f4193; stroke:none;" d="M297 640L298 641L297 640z"/>
<path style="fill:#a76c3f; stroke:none;" d="M581 640L582 641L581 640z"/>
<path style="fill:#3f4193; stroke:none;" d="M269 641L270 642L269 641z"/>
<path style="fill:#a76c3f; stroke:none;" d="M290 641L291 642L290 641M443 641L444 642L443 641M577.333 641.667L577.667 642.333L577.333 641.667M582 641L583 642L582 641M269.333 642.667L269.667 643.333L269.333 642.667M289 642L290 643L289 642M263 643L264 644L263 643z"/>
<path style="fill:#3f4193; stroke:none;" d="M287 643L288 644L287 643z"/>
<path style="fill:#a76c3f; stroke:none;" d="M578 643L579 644L578 643z"/>
<path style="fill:#3f4193; stroke:none;" d="M585 643L586 644L585 643z"/>
<path style="fill:#a76c3f; stroke:none;" d="M604 643L605 644L604 643M608.667 643.333L609.333 643.667L608.667 643.333z"/>
<path style="fill:#3f4193; stroke:none;" d="M286 644L287 645L286 644z"/>
<path style="fill:#a76c3f; stroke:none;" d="M579 644L580 645L579 644M586 644L587 645L586 644M605 644L606 645L605 644M260 645L261 646L260 645z"/>
<path style="fill:#3f4193; stroke:none;" d="M268 645L269 646L268 645M285 645L286 646L285 645z"/>
<path style="fill:#a76c3f; stroke:none;" d="M580 645L581 646L580 645M612 645L613 646L612 645z"/>
<path style="fill:#3f4193; stroke:none;" d="M267 646L268 647L267 646M440 646L441 647L440 646z"/>
<path style="fill:#a76c3f; stroke:none;" d="M451 646L452 647L451 646M581 646L582 647L581 646z"/>
<path style="fill:#3f4193; stroke:none;" d="M614 646L615 647L614 646z"/>
<path style="fill:#a76c3f; stroke:none;" d="M265 647L266 648L265 647z"/>
<path style="fill:#3f4193; stroke:none;" d="M283 647L284 648L283 647z"/>
<path style="fill:#a76c3f; stroke:none;" d="M450 647L451 648L450 647M582 647L583 648L582 647z"/>
<path style="fill:#3f4193; stroke:none;" d="M589 647L590 648L589 647M615 647L616 648L615 647z"/>
<path style="fill:#a76c3f; stroke:none;" d="M257 648L258 649L257 648M264 648L265 649L264 648z"/>
<path style="fill:#3f4193; stroke:none;" d="M282 648L283 649L282 648z"/>
<path style="fill:#a76c3f; stroke:none;" d="M289 648L290 649L289 648M439 648L440 649L439 648M449 648L450 649L449 648M583 648L584 649L583 648z"/>
<path style="fill:#3f4193; stroke:none;" d="M608 648L609 649L608 648z"/>
<path style="fill:#a76c3f; stroke:none;" d="M263 649L264 650L263 649M288 649L289 650L288 649M448 649L449 650L448 649M584 649L585 650L584 649z"/>
<path style="fill:#3f4193; stroke:none;" d="M280 650L281 651L280 650z"/>
<path style="fill:#a76c3f; stroke:none;" d="M287 650L288 651L287 650M438 650L439 651L438 650M447 650L448 651L447 650M585 650L586 651L585 650z"/>
<path style="fill:#3f4193; stroke:none;" d="M254 651L255 652L254 651z"/>
<path style="fill:#a76c3f; stroke:none;" d="M261 651L262 652L261 651z"/>
<path style="fill:#3f4193; stroke:none;" d="M279 651L280 652L279 651z"/>
<path style="fill:#a76c3f; stroke:none;" d="M286 651L287 652L286 651z"/>
<path style="fill:#3f4193; stroke:none;" d="M437 651L438 652L437 651z"/>
<path style="fill:#a76c3f; stroke:none;" d="M586 651L587 652L586 651M593 651L594 652L593 651M611 651L612 652L611 651M620 651L621 652L620 651z"/>
<path style="fill:#3f4193; stroke:none;" d="M253 652L254 653L253 652z"/>
<path style="fill:#a76c3f; stroke:none;" d="M260 652L261 653L260 652z"/>
<path style="fill:#3f4193; stroke:none;" d="M278 652L279 653L278 652z"/>
<path style="fill:#a76c3f; stroke:none;" d="M587 652L588 653L587 652z"/>
<path style="fill:#3f4193; stroke:none;" d="M594 652L595 653L594 652z"/>
<path style="fill:#a76c3f; stroke:none;" d="M612 652L613 653L612 652z"/>
<path style="fill:#3f4193; stroke:none;" d="M621 652L622 653L621 652z"/>
<path style="fill:#a76c3f; stroke:none;" d="M252 653L253 654L252 653M284 653L285 654L284 653M436 653L437 654L436 653M588 653L589 654L588 653z"/>
<path style="fill:#3f4193; stroke:none;" d="M622 653L623 654L622 653z"/>
<path style="fill:#a76c3f; stroke:none;" d="M249.667 654.333L250.333 654.667L249.667 654.333M435 654L436 655L435 654z"/>
<path style="fill:#3f4193; stroke:none;" d="M442 654L443 655L442 654z"/>
<path style="fill:#a76c3f; stroke:none;" d="M589 654L590 655L589 654z"/>
<path style="fill:#3f4193; stroke:none;" d="M596 654L597 655L596 654z"/>
<path style="fill:#a76c3f; stroke:none;" d="M614 654L615 655L614 654M623 654L624 655L623 654z"/>
<path style="fill:#3f4193; stroke:none;" d="M258 655L259 656L258 655z"/>
<path style="fill:#a76c3f; stroke:none;" d="M275 655L276 656L275 655z"/>
<path style="fill:#3f4193; stroke:none;" d="M283 655L284 656L283 655M441 655L442 656L441 655M597 655L598 656L597 655z"/>
<path style="fill:#a76c3f; stroke:none;" d="M615 655L616 656L615 655M624 655L625 656L624 655z"/>
<path style="fill:#3f4193; stroke:none;" d="M257 656L258 657L257 656M434 656L435 657L434 656z"/>
<path style="fill:#a76c3f; stroke:none;" d="M439 656L440 657L439 656M591 656L592 657L591 656z"/>
<path style="fill:#3f4193; stroke:none;" d="M598 656L599 657L598 656z"/>
<path style="fill:#a76c3f; stroke:none;" d="M616 656L617 657L616 656z"/>
<path style="fill:#3f4193; stroke:none;" d="M433 657L434 658L433 657M599 657L600 658L599 657z"/>
<path style="fill:#a76c3f; stroke:none;" d="M627 657L628 658L627 657M272 658L273 659L272 658z"/>
<path style="fill:#3f4193; stroke:none;" d="M437 658L438 659L437 658z"/>
<path style="fill:#a76c3f; stroke:none;" d="M600 658L601 659L600 658M618 658L619 659L618 658M628 658L629 659L628 658M254 659L255 660L254 659M271 659L272 660L271 659z"/>
<path style="fill:#3f4193; stroke:none;" d="M279 659L280 660L279 659z"/>
<path style="fill:#a76c3f; stroke:none;" d="M432 659L433 660L432 659z"/>
<path style="fill:#3f4193; stroke:none;" d="M436 659L437 660L436 659M593 659L594 660L593 659z"/>
<path style="fill:#a76c3f; stroke:none;" d="M601 659L602 660L601 659M619 659L620 660L619 659z"/>
<path style="fill:#3f4193; stroke:none;" d="M630 659L631 660L630 659M269 660L270 661L269 660z"/>
<path style="fill:#a76c3f; stroke:none;" d="M434 660L435 661L434 660z"/>
<path style="fill:#3f4193; stroke:none;" d="M603 660L604 661L603 660z"/>
<path style="fill:#a76c3f; stroke:none;" d="M431 661L432 662L431 661M433 661L434 662L433 661z"/>
<path style="fill:#3f4193; stroke:none;" d="M604 661L605 662L604 661z"/>
<path style="fill:#a76c3f; stroke:none;" d="M267 662L268 663L267 662M276 662L277 663L276 662z"/>
<path style="fill:#3f4193; stroke:none;" d="M596 662L597 663L596 662z"/>
<path style="fill:#a76c3f; stroke:none;" d="M605 662L606 663L605 662M622 662L623 663L622 662M633 662L634 663L633 662M250 663L251 664L250 663z"/>
<path style="fill:#3f4193; stroke:none;" d="M266 663L267 664L266 663M275 663L276 664L275 663z"/>
<path style="fill:#a76c3f; stroke:none;" d="M430 663L431 664L430 663z"/>
<path style="fill:#3f4193; stroke:none;" d="M597 663L598 664L597 663M606 663L607 664L606 663z"/>
<path style="fill:#a76c3f; stroke:none;" d="M623 663L624 664L623 663M634 663L635 664L634 663z"/>
<path style="fill:#3f4193; stroke:none;" d="M635 663L636 664L635 663M265 664L266 665L265 664M607 664L608 665L607 664M249 665L250 666L249 665z"/>
<path style="fill:#a76c3f; stroke:none;" d="M264 665L265 666L264 665M273 665L274 666L273 665z"/>
<path style="fill:#3f4193; stroke:none;" d="M608 665L609 666L608 665z"/>
<path style="fill:#a76c3f; stroke:none;" d="M625 665L626 666L625 665M236 666L237 667L236 666M248 666L249 667L248 666M263 666L264 667L263 666M272 666L273 667L272 666M600 666L601 667L600 666M609 666L610 667L609 666M626 666L627 667L626 666M637 666L638 667L637 666z"/>
<path style="fill:#3f4193; stroke:none;" d="M638 666L639 667L638 666z"/>
<path style="fill:#a76c3f; stroke:none;" d="M235 667L236 668L235 667M247 667L248 668L247 667z"/>
<path style="fill:#3f4193; stroke:none;" d="M262 667L263 668L262 667z"/>
<path style="fill:#a76c3f; stroke:none;" d="M271 667L272 668L271 667M601 667L602 668L601 667z"/>
<path style="fill:#3f4193; stroke:none;" d="M639 667L640 668L639 667z"/>
<path style="fill:#a76c3f; stroke:none;" d="M234 668L235 669L234 668M246 668L247 669L246 668z"/>
<path style="fill:#3f4193; stroke:none;" d="M261 668L262 669L261 668M627 668L628 669L627 668z"/>
<path style="fill:#a76c3f; stroke:none;" d="M233 669L234 670L233 669M245 669L246 670L245 669M269 669L270 670L269 669M603 669L604 670L603 669z"/>
<path style="fill:#3f4193; stroke:none;" d="M628 669L629 670L628 669z"/>
<path style="fill:#a76c3f; stroke:none;" d="M640 669L642 671L640 669z"/>
<path style="fill:#3f4193; stroke:none;" d="M641 669L642 670L641 669z"/>
<path style="fill:#a76c3f; stroke:none;" d="M232 670L233 671L232 670M244 670L245 671L244 670M268 670L269 671L268 670M604 670L605 671L604 670z"/>
<path style="fill:#3f4193; stroke:none;" d="M629 670L630 671L629 670z"/>
<path style="fill:#a76c3f; stroke:none;" d="M231 671L232 672L231 671M243 671L244 672L243 671z"/>
<path style="fill:#3f4193; stroke:none;" d="M268 671L269 672L268 671z"/>
<path style="fill:#a76c3f; stroke:none;" d="M605 671L606 672L605 671z"/>
<path style="fill:#3f4193; stroke:none;" d="M630 671L631 672L630 671z"/>
<path style="fill:#a76c3f; stroke:none;" d="M642 671L643 672L642 671M230 672L231 673L230 672M242 672L243 673L242 672z"/>
<path style="fill:#3f4193; stroke:none;" d="M267 672L268 673L267 672M605 672L606 673L605 672M631 672L632 673L631 672z"/>
<path style="fill:#a76c3f; stroke:none;" d="M229 673L230 674L229 673M265 673L266 674L265 673M327 673L327 674L342 674L327 673z"/>
<path style="fill:#3f4193; stroke:none;" d="M606 673L607 674L606 673M632 673L633 674L632 673z"/>
<path style="fill:#a76c3f; stroke:none;" d="M644 673L645 674L644 673z"/>
<path style="fill:#3f4193; stroke:none;" d="M265 674L266 675L265 674M311 674L311 675L316 675L311 674z"/>
<path style="fill:#a76c3f; stroke:none;" d="M316.667 674.333L317.333 674.667L316.667 674.333M351 674L352 675L351 674z"/>
<path style="fill:#3f4193; stroke:none;" d="M352 674L352 675L357 675L352 674M520 674L520 675L525 675L520 674z"/>
<path style="fill:#a76c3f; stroke:none;" d="M525 674L525 675L528 675L525 674z"/>
<path style="fill:#3f4193; stroke:none;" d="M555 674L556 675L555 674z"/>
<path style="fill:#a76c3f; stroke:none;" d="M556 674L557 675L556 674z"/>
<path style="fill:#3f4193; stroke:none;" d="M557 674L557 675L562 675L557 674M607 674L608 675L607 674M633 674L634 675L633 674z"/>
<path style="fill:#a76c3f; stroke:none;" d="M645 674L646 675L645 674M227 675L228 676L227 675z"/>
<path style="fill:#3f4193; stroke:none;" d="M264 675L265 676L264 675M303 675L303 676L306 676L303 675M360 675L360 676L363 676L360 675M513.667 675.333L514.333 675.667L513.667 675.333z"/>
<path style="fill:#a76c3f; stroke:none;" d="M515 675L516 676L515 675z"/>
<path style="fill:#3f4193; stroke:none;" d="M567 675L567 676L570 676L567 675M608 675L609 676L608 675M634 675L635 676L634 675z"/>
<path style="fill:#a76c3f; stroke:none;" d="M646 675L647 676L646 675z"/>
<path style="fill:#3f4193; stroke:none;" d="M263 676L264 677L263 676z"/>
<path style="fill:#a76c3f; stroke:none;" d="M297.667 676.333L298.333 676.667L297.667 676.333M507 676L507 677L510 677L507 676M575 676L576 677L575 676z"/>
<path style="fill:#3f4193; stroke:none;" d="M609 676L610 677L609 676z"/>
<path style="fill:#a76c3f; stroke:none;" d="M251 677L252 678L251 677z"/>
<path style="fill:#3f4193; stroke:none;" d="M262 677L263 678L262 677z"/>
<path style="fill:#a76c3f; stroke:none;" d="M290 677L290 678L294 678L290 677M370 677L370 678L373 678L370 677M500 677L500 678L503 678L500 677M579 677L579 678L582 678L579 677z"/>
<path style="fill:#3f4193; stroke:none;" d="M610 677L611 678L610 677z"/>
<path style="fill:#a76c3f; stroke:none;" d="M648 677L649 678L648 677z"/>
<path style="fill:#3f4193; stroke:none;" d="M223 678L224 679L223 678z"/>
<path style="fill:#a76c3f; stroke:none;" d="M250 678L251 679L250 678z"/>
<path style="fill:#3f4193; stroke:none;" d="M261 678L262 679L261 678M284 678L284 679L287 679L284 678M376.667 678.333L377.333 678.667L376.667 678.333M495.667 678.333L496.333 678.667L495.667 678.333M585.667 678.333L586.333 678.667L585.667 678.333M611 678L612 679L611 678M622 678L623 679L622 678z"/>
<path style="fill:#a76c3f; stroke:none;" d="M637 678L638 679L637 678M649 678L650 679L649 678M249 679L250 680L249 679z"/>
<path style="fill:#3f4193; stroke:none;" d="M260 679L261 680L260 679z"/>
<path style="fill:#a76c3f; stroke:none;" d="M492 679L493 680L492 679M589 679L590 680L589 679z"/>
<path style="fill:#3f4193; stroke:none;" d="M612 679L613 680L612 679z"/>
<path style="fill:#a76c3f; stroke:none;" d="M248 680L249 681L248 680z"/>
<path style="fill:#3f4193; stroke:none;" d="M259 680L260 681L259 680z"/>
<path style="fill:#a76c3f; stroke:none;" d="M275 680L275 681L279 681L275 680M382 680L383 681L382 680z"/>
<path style="fill:#3f4193; stroke:none;" d="M383 680L384 681L383 680z"/>
<path style="fill:#a76c3f; stroke:none;" d="M488 680L488 681L491 681L488 680M592.667 680.333L593.333 680.667L592.667 680.333M624 680L625 681L624 680M651 680L652 681L651 680z"/>
<path style="fill:#3f4193; stroke:none;" d="M220 681L221 682L220 681z"/>
<path style="fill:#a76c3f; stroke:none;" d="M247 681L248 682L247 681M258 681L259 682L258 681z"/>
<path style="fill:#3f4193; stroke:none;" d="M271 681L272 682L271 681z"/>
<path style="fill:#a76c3f; stroke:none;" d="M272 681L273 682L272 681M386 681L387 682L386 681z"/>
<path style="fill:#3f4193; stroke:none;" d="M387 681L388 682L387 681z"/>
<path style="fill:#a76c3f; stroke:none;" d="M484.667 681.333L485.333 681.667L484.667 681.333M596 681L596 682L599 682L596 681M625 681L626 682L625 681M640 681L641 682L640 681z"/>
<path style="fill:#3f4193; stroke:none;" d="M653 681L654 682L653 681M219 682L220 683L219 682z"/>
<path style="fill:#a76c3f; stroke:none;" d="M246 682L247 683L246 682z"/>
<path style="fill:#3f4193; stroke:none;" d="M267.667 682.333L268.333 682.667L267.667 682.333M389.667 682.333L390.333 682.667L389.667 682.333M481 682L482 683L481 682M601.667 682.333L602.333 682.667L601.667 682.333z"/>
<path style="fill:#a76c3f; stroke:none;" d="M615 682L616 683L615 682M626 682L627 683L626 682z"/>
<path style="fill:#3f4193; stroke:none;" d="M654 682L655 683L654 682z"/>
<path style="fill:#a76c3f; stroke:none;" d="M245 683L246 684L245 683M392 683L393 684L392 683z"/>
<path style="fill:#3f4193; stroke:none;" d="M478 683L479 684L478 683z"/>
<path style="fill:#a76c3f; stroke:none;" d="M627 683L628 684L627 683M641 683L642 684L641 683M217 684L218 685L217 684M244 684L245 685L244 684z"/>
<path style="fill:#3f4193; stroke:none;" d="M256 684L257 685L256 684z"/>
<path style="fill:#a76c3f; stroke:none;" d="M261.667 684.333L262.333 684.667L261.667 684.333M394 684L395 685L394 684z"/>
<path style="fill:#3f4193; stroke:none;" d="M395 684L396 685L395 684z"/>
<path style="fill:#a76c3f; stroke:none;" d="M476 684L477 685L476 684M608 684L608 685L611 685L608 684M628 684L629 685L628 684z"/>
<path style="fill:#3f4193; stroke:none;" d="M642 684L643 685L642 684z"/>
<path style="fill:#a76c3f; stroke:none;" d="M656 684L657 685L656 684M216 685L217 686L216 685M230 685L231 686L230 685M243 685L244 686L243 685M257 685L258 686L257 685M397 685L398 686L397 685z"/>
<path style="fill:#3f4193; stroke:none;" d="M398 685L399 686L398 685M472.667 685.333L473.333 685.667L472.667 685.333z"/>
<path style="fill:#a76c3f; stroke:none;" d="M614.667 685.333L615.333 685.667L614.667 685.333M629 685L630 686L629 685M643 685L644 686L643 685M215 686L216 687L215 686M229 686L230 687L229 686z"/>
<path style="fill:#3f4193; stroke:none;" d="M400 686L401 687L400 686M470 686L471 687L470 686z"/>
<path style="fill:#a76c3f; stroke:none;" d="M525 686L525 687L529 687L525 686M630 686L631 687L630 686M644 686L645 687L644 686z"/>
<path style="fill:#3f4193; stroke:none;" d="M659 686L660 687L659 686z"/>
<path style="fill:#a76c3f; stroke:none;" d="M228 687L229 688L228 687z"/>
<path style="fill:#ffffff; stroke:none;" d="M347.667 687.333L348.333 687.667L347.667 687.333z"/>
<path style="fill:#a76c3f; stroke:none;" d="M353 687L354 688L353 687z"/>
<path style="fill:#ffffff; stroke:none;" d="M530 687L530 688L534 688L530 687z"/>
<path style="fill:#a76c3f; stroke:none;" d="M631 687L632 688L631 687M645 687L646 688L645 687M660 687L661 688L660 687M213 688L214 689L213 688M227 688L228 689L227 688M349 688L350 689L349 688z"/>
<path style="fill:#3f4193; stroke:none;" d="M360 688L360 689L365 689L360 688z"/>
<path style="fill:#a76c3f; stroke:none;" d="M365 688L366 689L365 688M405 688L406 689L405 688M466 688L467 689L466 688M506 688L507 689L506 688z"/>
<path style="fill:#3f4193; stroke:none;" d="M507 688L507 689L511 689L507 688M526 688L527 689L526 688z"/>
<path style="fill:#a76c3f; stroke:none;" d="M527 688L527 689L530 689L527 688M632 688L633 689L632 688M646 688L647 689L646 688M661 688L662 689L661 688M212 689L213 690L212 689M226 689L227 690L226 689z"/>
<path style="fill:#3f4193; stroke:none;" d="M238 689L239 690L238 689M352 689L352 690L355 690L352 689z"/>
<path style="fill:#a76c3f; stroke:none;" d="M369 689L369 690L373 690L369 689z"/>
<path style="fill:#3f4193; stroke:none;" d="M407 689L408 690L407 689M463.667 689.333L464.333 689.667L463.667 689.333z"/>
<path style="fill:#a76c3f; stroke:none;" d="M499 689L499 690L502 690L499 689z"/>
<path style="fill:#3f4193; stroke:none;" d="M520 689L520 690L523 690L520 689z"/>
<path style="fill:#a76c3f; stroke:none;" d="M523 689L524 690L523 689M633 689L634 690L633 689z"/>
<path style="fill:#3f4193; stroke:none;" d="M634 689L635 690L634 689M662 689L663 690L662 689z"/>
<path style="fill:#a76c3f; stroke:none;" d="M211 690L212 691L211 690M225 690L226 691L225 690M237 690L238 691L237 690M357 690L358 691L357 690M377 690L377 691L380 691L377 690z"/>
<path style="fill:#3f4193; stroke:none;" d="M409 690L410 691L409 690z"/>
<path style="fill:#a76c3f; stroke:none;" d="M462 690L463 691L462 690M492 690L492 691L495 691L492 690z"/>
<path style="fill:#3f4193; stroke:none;" d="M495 690L496 691L495 690M516 690L517 691L516 690M663 690L664 691L663 690M209 691L210 692L209 691z"/>
<path style="fill:#a76c3f; stroke:none;" d="M210 691L211 692L210 691M224 691L225 692L224 691M360 691L360 692L363 692L360 691M411 691L412 692L411 691M460 691L461 692L460 691M511.667 691.333L512.333 691.667L511.667 691.333M664 691L665 692L664 691z"/>
<path style="fill:#3f4193; stroke:none;" d="M208 692L209 693L208 692z"/>
<path style="fill:#a76c3f; stroke:none;" d="M235 692L236 693L235 692M365 692L365 693L368 693L365 692z"/>
<path style="fill:#3f4193; stroke:none;" d="M386 692L386 693L389 693L386 692z"/>
<path style="fill:#a76c3f; stroke:none;" d="M413 692L414 693L413 692M458 692L459 693L458 692M483 692L484 693L483 692z"/>
<path style="fill:#3f4193; stroke:none;" d="M484.667 692.333L485.333 692.667L484.667 692.333z"/>
<path style="fill:#a76c3f; stroke:none;" d="M506.667 692.333L507.333 692.667L506.667 692.333z"/>
<path style="fill:#3f4193; stroke:none;" d="M637 692L638 693L637 692z"/>
<path style="fill:#a76c3f; stroke:none;" d="M665 692L666 693L665 692z"/>
<path style="fill:#3f4193; stroke:none;" d="M207 693L208 694L207 693z"/>
<path style="fill:#a76c3f; stroke:none;" d="M222 693L223 694L222 693M234 693L235 694L234 693M369 693L370 694L369 693z"/>
<path style="fill:#3f4193; stroke:none;" d="M370 693L371 694L370 693z"/>
<path style="fill:#a76c3f; stroke:none;" d="M392.667 693.333L393.333 693.667L392.667 693.333z"/>
<path style="fill:#3f4193; stroke:none;" d="M415 693L416 694L415 693M456 693L457 694L456 693z"/>
<path style="fill:#a76c3f; stroke:none;" d="M479.667 693.333L480.333 693.667L479.667 693.333z"/>
<path style="fill:#3f4193; stroke:none;" d="M502 693L503 694L502 693z"/>
<path style="fill:#a76c3f; stroke:none;" d="M503 693L504 694L503 693z"/>
<path style="fill:#3f4193; stroke:none;" d="M666 693L667 694L666 693z"/>
<path style="fill:#a76c3f; stroke:none;" d="M373 694L374 695L373 694z"/>
<path style="fill:#3f4193; stroke:none;" d="M396 694L397 695L396 694M476 694L477 695L476 694z"/>
<path style="fill:#a76c3f; stroke:none;" d="M499 694L500 695L499 694z"/>
<path style="fill:#3f4193; stroke:none;" d="M667 694L668 695L667 694M205 695L206 696L205 695z"/>
<path style="fill:#a76c3f; stroke:none;" d="M232 695L233 696L232 695M375.667 695.333L376.333 695.667L375.667 695.333z"/>
<path style="fill:#3f4193; stroke:none;" d="M400 695L401 696L400 695z"/>
<path style="fill:#a76c3f; stroke:none;" d="M418 695L419 696L418 695M453 695L454 696L453 695z"/>
<path style="fill:#3f4193; stroke:none;" d="M472 695L473 696L472 695z"/>
<path style="fill:#a76c3f; stroke:none;" d="M495.667 695.333L496.333 695.667L495.667 695.333M652 695L653 696L652 695M668 695L669 696L668 695z"/>
<path style="fill:#3f4193; stroke:none;" d="M204 696L205 697L204 696M220 696L221 697L220 696z"/>
<path style="fill:#a76c3f; stroke:none;" d="M231 696L232 697L231 696M379.667 696.333L380.333 696.667L379.667 696.333z"/>
<path style="fill:#3f4193; stroke:none;" d="M404 696L405 697L404 696z"/>
<path style="fill:#a76c3f; stroke:none;" d="M405 696L406 697L405 696M420 696L421 697L420 696z"/>
<path style="fill:#3f4193; stroke:none;" d="M451 696L452 697L451 696M468 696L469 697L468 696M491 696L492 697L491 696z"/>
<path style="fill:#a76c3f; stroke:none;" d="M492 696L493 697L492 696z"/>
<path style="fill:#3f4193; stroke:none;" d="M641 696L642 697L641 696z"/>
<path style="fill:#a76c3f; stroke:none;" d="M653 696L654 697L653 696M669 696L670 697L669 696z"/>
<path style="fill:#3f4193; stroke:none;" d="M203 697L204 698L203 697M219 697L220 698L219 697M229 697L230 698L229 697z"/>
<path style="fill:#a76c3f; stroke:none;" d="M230 697L231 698L230 697z"/>
<path style="fill:#3f4193; stroke:none;" d="M382.667 697.333L383.333 697.667L382.667 697.333z"/>
<path style="fill:#a76c3f; stroke:none;" d="M408.667 697.333L409.333 697.667L408.667 697.333M421 697L422 698L421 697z"/>
<path style="fill:#3f4193; stroke:none;" d="M450 697L451 698L450 697z"/>
<path style="fill:#a76c3f; stroke:none;" d="M464.667 697.333L465.333 697.667L464.667 697.333z"/>
<path style="fill:#3f4193; stroke:none;" d="M488 697L489 698L488 697z"/>
<path style="fill:#a76c3f; stroke:none;" d="M489 697L490 698L489 697z"/>
<path style="fill:#3f4193; stroke:none;" d="M642.667 697.333L643.333 697.667L642.667 697.333M670 697L671 698L670 697M202 698L203 699L202 698z"/>
<path style="fill:#a76c3f; stroke:none;" d="M226 698L227 699L226 698M385 698L386 699L385 698z"/>
<path style="fill:#3f4193; stroke:none;" d="M411 698L412 699L411 698z"/>
<path style="fill:#a76c3f; stroke:none;" d="M655.333 698.667L655.667 699.333L655.333 698.667z"/>
<path style="fill:#3f4193; stroke:none;" d="M671 698L672 699L671 698M201 699L202 700L201 699z"/>
<path style="fill:#a76c3f; stroke:none;" d="M222 699L222 700L225 700L222 699M387.667 699.333L388.333 699.667L387.667 699.333z"/>
<path style="fill:#3f4193; stroke:none;" d="M414 699L415 700L414 699z"/>
<path style="fill:#a76c3f; stroke:none;" d="M424 699L425 700L424 699z"/>
<path style="fill:#3f4193; stroke:none;" d="M447 699L448 700L447 699z"/>
<path style="fill:#a76c3f; stroke:none;" d="M458 699L459 700L458 699z"/>
<path style="fill:#3f4193; stroke:none;" d="M459 699L460 700L459 699z"/>
<path style="fill:#a76c3f; stroke:none;" d="M483 699L484 700L483 699M648 699L648 700L651 700L648 699M672 699L673 700L672 699M390 700L391 701L390 700M417.667 700.333L418.333 700.667L417.667 700.333z"/>
<path style="fill:#3f4193; stroke:none;" d="M426 700L427 701L426 700M446 700L447 701L446 700z"/>
<path style="fill:#a76c3f; stroke:none;" d="M455.667 700.333L456.333 700.667L455.667 700.333z"/>
<path style="fill:#3f4193; stroke:none;" d="M480 700L481 701L480 700z"/>
<path style="fill:#a76c3f; stroke:none;" d="M481 700L482 701L481 700z"/>
<path style="fill:#3f4193; stroke:none;" d="M393 701L394 702L393 701z"/>
<path style="fill:#a76c3f; stroke:none;" d="M420.667 701.333L421.333 701.667L420.667 701.333z"/>
<path style="fill:#3f4193; stroke:none;" d="M427 701L428 702L427 701z"/>
<path style="fill:#a76c3f; stroke:none;" d="M451.667 701.333L452.333 701.667L451.667 701.333z"/>
<path style="fill:#3f4193; stroke:none;" d="M478 701L479 702L478 701z"/>
<path style="fill:#a76c3f; stroke:none;" d="M395 702L396 703L395 702M424 702L425 703L424 702M197 703L198 704L197 703M397.667 703.333L398.333 703.667L397.667 703.333z"/>
<path style="fill:#3f4193; stroke:none;" d="M426 703L427 704L426 703z"/>
<path style="fill:#a76c3f; stroke:none;" d="M429 703L431 705L429 703M442 703L442 705L444 703L442 703z"/>
<path style="fill:#3f4193; stroke:none;" d="M445.667 703.333L446.333 703.667L445.667 703.333M473 703L474 704L473 703z"/>
<path style="fill:#a76c3f; stroke:none;" d="M474 703L475 704L474 703M196 704L197 705L196 704z"/>
<path style="fill:#3f4193; stroke:none;" d="M400 704L401 705L400 704M429 704L430 705L429 704M443 704L444 705L443 704M471 704L472 705L471 704z"/>
<path style="fill:#ffffff; stroke:none;" d="M353 705L353 706L356 706L353 705z"/>
<path style="fill:#a76c3f; stroke:none;" d="M360.667 705.333L361.333 705.667L360.667 705.333z"/>
<path style="fill:#3f4193; stroke:none;" d="M402 705L403 706L402 705z"/>
<path style="fill:#a76c3f; stroke:none;" d="M511 705L511 706L514 706L511 705z"/>
<path style="fill:#3f4193; stroke:none;" d="M514 705L515 706L514 705z"/>
<path style="fill:#ffffff; stroke:none;" d="M518 705L518 706L521 706L518 705M357 706L358 707L357 706z"/>
<path style="fill:#3f4193; stroke:none;" d="M364 706L365 707L364 706z"/>
<path style="fill:#a76c3f; stroke:none;" d="M365 706L366 707L365 706M404 706L405 707L404 706M468 706L469 707L468 706z"/>
<path style="fill:#3f4193; stroke:none;" d="M507 706L508 707L507 706z"/>
<path style="fill:#a76c3f; stroke:none;" d="M517 706L518 707L517 706M193 707L194 708L193 707M358.667 707.333L359.333 707.667L358.667 707.333z"/>
<path style="fill:#3f4193; stroke:none;" d="M370 707L371 708L370 707z"/>
<path style="fill:#a76c3f; stroke:none;" d="M371.667 707.333L372.333 707.667L371.667 707.333M406 707L407 708L406 707M466 707L467 708L466 707z"/>
<path style="fill:#3f4193; stroke:none;" d="M501.667 707.333L502.333 707.667L501.667 707.333z"/>
<path style="fill:#a76c3f; stroke:none;" d="M513 707L513 708L516 708L513 707z"/>
<path style="fill:#3f4193; stroke:none;" d="M191 708L192 709L191 708M363.667 708.333L364.333 708.667L363.667 708.333z"/>
<path style="fill:#a76c3f; stroke:none;" d="M375 708L375 709L378 709L375 708z"/>
<path style="fill:#3f4193; stroke:none;" d="M408 708L409 709L408 708M463.667 708.333L464.333 708.667L463.667 708.333z"/>
<path style="fill:#a76c3f; stroke:none;" d="M495 708L495 709L499 709L495 708z"/>
<path style="fill:#3f4193; stroke:none;" d="M508.667 708.333L509.333 708.667L508.667 708.333M190 709L191 710L190 709z"/>
<path style="fill:#a76c3f; stroke:none;" d="M380 709L381 710L380 709M410 709L411 710L410 709M462 709L463 710L462 709M492 709L493 710L492 709M683 709L684 710L683 709M189 710L190 711L189 710M369.667 710.333L370.333 710.667L369.667 710.333z"/>
<path style="fill:#3f4193; stroke:none;" d="M383 710L383 711L386 711L383 710z"/>
<path style="fill:#a76c3f; stroke:none;" d="M460 710L461 711L460 710z"/>
<path style="fill:#3f4193; stroke:none;" d="M488 710L488 711L491 711L488 710z"/>
<path style="fill:#a76c3f; stroke:none;" d="M502 710L503 711L502 710M684 710L685 711L684 710M188 711L189 712L188 711M372.667 711.333L373.333 711.667L372.667 711.333M389 711L389 712L392 712L389 711z"/>
<path style="fill:#3f4193; stroke:none;" d="M414 711L415 712L414 711M458 711L459 712L458 711z"/>
<path style="fill:#a76c3f; stroke:none;" d="M459 711L460 712L459 711M483.667 711.333L484.333 711.667L483.667 711.333z"/>
<path style="fill:#3f4193; stroke:none;" d="M485 711L486 712L485 711M498 711L499 712L498 711z"/>
<path style="fill:#a76c3f; stroke:none;" d="M499 711L500 712L499 711z"/>
<path style="fill:#3f4193; stroke:none;" d="M685 711L686 712L685 711M187 712L188 713L187 712M376 712L377 713L376 712z"/>
<path style="fill:#a76c3f; stroke:none;" d="M393 712L393 713L396 713L393 712z"/>
<path style="fill:#3f4193; stroke:none;" d="M415 712L416 713L415 712M457 712L458 713L457 712z"/>
<path style="fill:#a76c3f; stroke:none;" d="M479.667 712.333L480.333 712.667L479.667 712.333z"/>
<path style="fill:#3f4193; stroke:none;" d="M494.667 712.333L495.333 712.667L494.667 712.333M686 712L687 713L686 712M186 713L187 714L186 713M379 713L380 714L379 713M417 713L418 714L417 713M455 713L456 714L455 713M492 713L493 714L492 713z"/>
<path style="fill:#a76c3f; stroke:none;" d="M687 713L688 714L687 713M185 714L186 715L185 714M382 714L383 715L382 714z"/>
<path style="fill:#3f4193; stroke:none;" d="M400.667 714.333L401.333 714.667L400.667 714.333z"/>
<path style="fill:#a76c3f; stroke:none;" d="M454 714L455 715L454 714z"/>
<path style="fill:#3f4193; stroke:none;" d="M473 714L474 715L473 714z"/>
<path style="fill:#a76c3f; stroke:none;" d="M489.667 714.333L490.333 714.667L489.667 714.333M688 714L689 715L688 714z"/>
<path style="fill:#3f4193; stroke:none;" d="M184 715L185 716L184 715z"/>
<path style="fill:#a76c3f; stroke:none;" d="M384 715L385 716L384 715z"/>
<path style="fill:#3f4193; stroke:none;" d="M385 715L386 716L385 715z"/>
<path style="fill:#a76c3f; stroke:none;" d="M405 715L406 716L405 715M420 715L421 716L420 715M469.667 715.333L470.333 715.667L469.667 715.333z"/>
<path style="fill:#3f4193; stroke:none;" d="M486.667 715.333L487.333 715.667L486.667 715.333z"/>
<path style="fill:#a76c3f; stroke:none;" d="M689 715L690 716L689 715z"/>
<path style="fill:#3f4193; stroke:none;" d="M183 716L184 717L183 716M387 716L388 717L387 716z"/>
<path style="fill:#a76c3f; stroke:none;" d="M408.667 716.333L409.333 716.667L408.667 716.333M421 716L422 717L421 716M451 716L452 717L451 716M466 716L467 717L466 716M484 716L485 717L484 716M690 716L691 717L690 716z"/>
<path style="fill:#3f4193; stroke:none;" d="M411 717L412 718L411 717z"/>
<path style="fill:#a76c3f; stroke:none;" d="M450 717L451 718L450 717M463 717L464 718L463 717z"/>
<path style="fill:#3f4193; stroke:none;" d="M481 717L482 718L481 717M571 717L571 718L580 718L571 717z"/>
<path style="fill:#a76c3f; stroke:none;" d="M691 717L692 718L691 717z"/>
<path style="fill:#3f4193; stroke:none;" d="M266 718L266 719L275 719L266 718M316 718L316 719L324 719L316 718z"/>
<path style="fill:#a76c3f; stroke:none;" d="M391.667 718.333L392.333 718.667L391.667 718.333z"/>
<path style="fill:#3f4193; stroke:none;" d="M413 718L414 719L413 718z"/>
<path style="fill:#a76c3f; stroke:none;" d="M414 718L415 719L414 718M424 718L425 719L424 718z"/>
<path style="fill:#3f4193; stroke:none;" d="M460.667 718.333L461.333 718.667L460.667 718.333z"/>
<path style="fill:#a76c3f; stroke:none;" d="M479 718L480 719L479 718z"/>
<path style="fill:#3f4193; stroke:none;" d="M547 718L547 719L556 719L547 718M598 718L598 719L606 719L598 718z"/>
<path style="fill:#a76c3f; stroke:none;" d="M692 718L693 719L692 718M253 719L253 720L259 720L253 719M331 719L331 720L337 720L331 719M394 719L395 720L394 719M416 719L416 720L419 720L416 719M425 719L426 720L425 719z"/>
<path style="fill:#3f4193; stroke:none;" d="M426 719L427 720L426 719z"/>
<path style="fill:#a76c3f; stroke:none;" d="M457 719L458 720L457 719z"/>
<path style="fill:#3f4193; stroke:none;" d="M458 719L459 720L458 719M477 719L478 720L477 719z"/>
<path style="fill:#a76c3f; stroke:none;" d="M535 719L535 720L540 720L535 719z"/>
<path style="fill:#3f4193; stroke:none;" d="M540 719L541 720L540 719M612 719L613 720L612 719z"/>
<path style="fill:#a76c3f; stroke:none;" d="M613 719L613 720L618 720L613 719M693 719L694 720L693 719M178 720L179 721L178 720M247 720L248 721L247 720M396 720L397 721L396 720M446 720L447 721L446 720z"/>
<path style="fill:#3f4193; stroke:none;" d="M454 720L455 721L454 720M529 720L530 721L529 720M623 720L624 721L623 720z"/>
<path style="fill:#a76c3f; stroke:none;" d="M694 720L695 721L694 720M177 721L178 722L177 721z"/>
<path style="fill:#3f4193; stroke:none;" d="M239.667 721.333L240.333 721.667L239.667 721.333M349 721L350 722L349 721z"/>
<path style="fill:#a76c3f; stroke:none;" d="M350 721L351 722L350 721M398 721L399 722L398 721z"/>
<path style="fill:#3f4193; stroke:none;" d="M428 721L429 722L428 721z"/>
<path style="fill:#a76c3f; stroke:none;" d="M445 721L446 722L445 721z"/>
<path style="fill:#3f4193; stroke:none;" d="M451 721L452 722L451 721z"/>
<path style="fill:#a76c3f; stroke:none;" d="M473 721L474 722L473 721z"/>
<path style="fill:#3f4193; stroke:none;" d="M522.667 721.333L523.333 721.667L522.667 721.333M630.667 721.333L631.333 721.667L630.667 721.333z"/>
<path style="fill:#a76c3f; stroke:none;" d="M695 721L696 722L695 721M176 722L177 723L176 722M232.667 722.333L233.333 722.667L232.667 722.333z"/>
<path style="fill:#3f4193; stroke:none;" d="M234.667 722.333L235.333 722.667L234.667 722.333M354 722L354 723L357 723L354 722z"/>
<path style="fill:#a76c3f; stroke:none;" d="M357.667 722.333L358.333 722.667L357.667 722.333M401 722L402 723L401 722z"/>
<path style="fill:#3f4193; stroke:none;" d="M425 722L426 723L425 722z"/>
<path style="fill:#a76c3f; stroke:none;" d="M426 722L427 723L426 722M429 722L429 724L431 724L429 722M444 722L443 724L444 722M447 722L448 723L447 722z"/>
<path style="fill:#3f4193; stroke:none;" d="M448 722L449 723L448 722M470 722L471 723L470 722z"/>
<path style="fill:#a76c3f; stroke:none;" d="M471 722L472 723L471 722M515 722L516 723L515 722z"/>
<path style="fill:#3f4193; stroke:none;" d="M516 722L516 723L519 723L516 722M636.667 722.333L637.333 722.667L636.667 722.333z"/>
<path style="fill:#a76c3f; stroke:none;" d="M638.667 722.333L639.333 722.667L638.667 722.333M696 722L697 723L696 722M175 723L176 724L175 723M225 723L225 724L229 724L225 723z"/>
<path style="fill:#3f4193; stroke:none;" d="M361 723L362 724L361 723z"/>
<path style="fill:#a76c3f; stroke:none;" d="M362.667 723.333L363.333 723.667L362.667 723.333z"/>
<path style="fill:#3f4193; stroke:none;" d="M403 723L404 724L403 723M444 723L445 724L444 723M468 723L469 724L468 723z"/>
<path style="fill:#a76c3f; stroke:none;" d="M469 723L470 724L469 723M509.667 723.333L510.333 723.667L509.667 723.333z"/>
<path style="fill:#3f4193; stroke:none;" d="M642 723L643 724L642 723z"/>
<path style="fill:#a76c3f; stroke:none;" d="M643 723L643 724L646 724L643 723M174 724L175 725L174 724z"/>
<path style="fill:#3f4193; stroke:none;" d="M222 724L223 725L222 724M405 724L406 725L405 724M649 724L650 725L649 724z"/>
<path style="fill:#a76c3f; stroke:none;" d="M173 725L174 726L173 725z"/>
<path style="fill:#3f4193; stroke:none;" d="M216 725L216 726L219 726L216 725M371 725L371 726L374 726L371 725z"/>
<path style="fill:#a76c3f; stroke:none;" d="M406.667 725.333L407.333 725.667L406.667 725.333M465.667 725.333L466.333 725.667L465.667 725.333M499 725L500 726L499 725z"/>
<path style="fill:#3f4193; stroke:none;" d="M500.667 725.333L501.333 725.667L500.667 725.333M653.667 725.333L654.333 725.667L653.667 725.333z"/>
<path style="fill:#a76c3f; stroke:none;" d="M655 725L656 726L655 725z"/>
<path style="fill:#3f4193; stroke:none;" d="M171 726L172 727L171 726z"/>
<path style="fill:#a76c3f; stroke:none;" d="M211.667 726.333L212.333 726.667L211.667 726.333z"/>
<path style="fill:#3f4193; stroke:none;" d="M213 726L214 727L213 726z"/>
<path style="fill:#a76c3f; stroke:none;" d="M377.667 726.333L378.333 726.667L377.667 726.333M408 726L409 727L408 726z"/>
<path style="fill:#3f4193; stroke:none;" d="M463 726L464 727L463 726z"/>
<path style="fill:#a76c3f; stroke:none;" d="M464 726L465 727L464 726M495.667 726.333L496.333 726.667L495.667 726.333z"/>
<path style="fill:#3f4193; stroke:none;" d="M658 726L659 727L658 726z"/>
<path style="fill:#a76c3f; stroke:none;" d="M659.667 726.333L660.333 726.667L659.667 726.333M700 726L701 727L700 726z"/>
<path style="fill:#3f4193; stroke:none;" d="M701 726L702 727L701 726z"/>
<path style="fill:#a76c3f; stroke:none;" d="M206.667 727.333L207.333 727.667L206.667 727.333z"/>
<path style="fill:#3f4193; stroke:none;" d="M208 727L209 728L208 727M381 727L382 728L381 727z"/>
<path style="fill:#a76c3f; stroke:none;" d="M382.667 727.333L383.333 727.667L382.667 727.333M410 727L411 728L410 727M462 727L463 728L462 727M490.667 727.333L491.333 727.667L490.667 727.333z"/>
<path style="fill:#3f4193; stroke:none;" d="M492 727L493 728L492 727z"/>
<path style="fill:#a76c3f; stroke:none;" d="M663 727L663 728L666 728L663 727M169 729L170 730L169 729M198 729L199 730L198 729z"/>
<path style="fill:#3f4193; stroke:none;" d="M199.667 729.333L200.333 729.667L199.667 729.333M389.667 729.333L390.333 729.667L389.667 729.333z"/>
<path style="fill:#a76c3f; stroke:none;" d="M391 729L392 730L391 729M413 729L414 730L413 729z"/>
<path style="fill:#3f4193; stroke:none;" d="M414 729L415 730L414 729M458 729L459 730L458 729z"/>
<path style="fill:#a76c3f; stroke:none;" d="M459 729L460 730L459 729z"/>
<path style="fill:#3f4193; stroke:none;" d="M483.667 729.333L484.333 729.667L483.667 729.333M670.667 729.333L671.333 729.667L670.667 729.333z"/>
<path style="fill:#a76c3f; stroke:none;" d="M672 729L673 730L672 729z"/>
<path style="fill:#3f4193; stroke:none;" d="M704 729L705 730L704 729z"/>
<path style="fill:#a76c3f; stroke:none;" d="M168 730L169 731L168 730M194.667 730.333L195.333 730.667L194.667 730.333z"/>
<path style="fill:#3f4193; stroke:none;" d="M394 730L395 731L394 730z"/>
<path style="fill:#a76c3f; stroke:none;" d="M395 730L396 731L395 730z"/>
<path style="fill:#3f4193; stroke:none;" d="M457 730L458 731L457 730z"/>
<path style="fill:#a76c3f; stroke:none;" d="M479 730L480 731L479 730z"/>
<path style="fill:#3f4193; stroke:none;" d="M480 730L481 731L480 730M675 730L676 731L675 730z"/>
<path style="fill:#a76c3f; stroke:none;" d="M676 730L677 731L676 730M167 731L168 732L167 731M190 731L191 732L190 731M399 731L400 732L399 731M417 731L418 732L417 731M475 731L476 732L475 731M680 731L681 732L680 731M166 732L167 733L166 732M187 732L188 733L187 732M418 732L419 733L418 732M454.667 732.333L455.333 732.667L454.667 732.333z"/>
<path style="fill:#3f4193; stroke:none;" d="M473 732L474 733L473 732z"/>
<path style="fill:#a76c3f; stroke:none;" d="M165 733L166 734L165 733z"/>
<path style="fill:#3f4193; stroke:none;" d="M184.667 733.333L185.333 733.667L184.667 733.333M404.667 733.333L405.333 733.667L404.667 733.333z"/>
<path style="fill:#a76c3f; stroke:none;" d="M420 733L421 734L420 733M453 733L454 734L453 733M469 733L470 734L469 733z"/>
<path style="fill:#3f4193; stroke:none;" d="M470.667 733.333L471.333 733.667L470.667 733.333M685.667 733.333L686.333 733.667L685.667 733.333z"/>
<path style="fill:#a76c3f; stroke:none;" d="M687 733L688 734L687 733M708 733L709 734L708 733M164 734L165 735L164 734M180.667 734.333L181.333 734.667L180.667 734.333z"/>
<path style="fill:#3f4193; stroke:none;" d="M407 734L408 735L407 734z"/>
<path style="fill:#a76c3f; stroke:none;" d="M408 734L409 735L408 734M421 734L422 735L421 734z"/>
<path style="fill:#3f4193; stroke:none;" d="M422 734L423 735L422 734z"/>
<path style="fill:#a76c3f; stroke:none;" d="M466.667 734.333L467.333 734.667L466.667 734.333M689 734L689 735L692 735L689 734M709 734L710 735L709 734M163 735L164 736L163 735z"/>
<path style="fill:#3f4193; stroke:none;" d="M178 735L179 736L178 735M410 735L411 736L410 735M175 736L176 737L175 736M413 736L414 737L413 736M424 736L425 737L424 736M448 736L449 737L448 736z"/>
<path style="fill:#a76c3f; stroke:none;" d="M449 736L450 737L449 736z"/>
<path style="fill:#3f4193; stroke:none;" d="M461 736L462 737L461 736M695.667 736.333L696.333 736.667L695.667 736.333z"/>
<path style="fill:#a76c3f; stroke:none;" d="M711 736L712 737L711 736z"/>
<path style="fill:#3f4193; stroke:none;" d="M160 737L161 738L160 737z"/>
<path style="fill:#a76c3f; stroke:none;" d="M171 737L172 738L171 737z"/>
<path style="fill:#3f4193; stroke:none;" d="M172 737L173 738L172 737M416 737L417 738L416 737z"/>
<path style="fill:#a76c3f; stroke:none;" d="M417 737L418 738L417 737M425 737L426 738L425 737z"/>
<path style="fill:#3f4193; stroke:none;" d="M447 737L448 738L447 737z"/>
<path style="fill:#a76c3f; stroke:none;" d="M457.667 737.333L458.333 737.667L457.667 737.333z"/>
<path style="fill:#3f4193; stroke:none;" d="M699 737L700 738L699 737z"/>
<path style="fill:#a76c3f; stroke:none;" d="M700 737L701 738L700 737M712 737L713 738L712 737z"/>
<path style="fill:#3f4193; stroke:none;" d="M159 738L160 739L159 738z"/>
<path style="fill:#a76c3f; stroke:none;" d="M167.667 738.333L168.333 738.667L167.667 738.333M420 738L421 739L420 738M426 738L427 739L426 738z"/>
<path style="fill:#3f4193; stroke:none;" d="M427 738L428 739L427 738M446 738L447 739L446 738z"/>
<path style="fill:#a76c3f; stroke:none;" d="M453.667 738.333L454.333 738.667L453.667 738.333z"/>
<path style="fill:#3f4193; stroke:none;" d="M455 738L456 739L455 738z"/>
<path style="fill:#a76c3f; stroke:none;" d="M703.667 738.333L704.333 738.667L703.667 738.333M713 738L714 739L713 738z"/>
<path style="fill:#3f4193; stroke:none;" d="M428 739L429 740L428 739M162.667 740.333L163.333 740.667L162.667 740.333M425.667 740.333L426.333 740.667L425.667 740.333M429 740L430 741L429 740z"/>
<path style="fill:#a76c3f; stroke:none;" d="M444.333 740.667L444.667 741.333L444.333 740.667M447 740L448 741L447 740z"/>
<path style="fill:#3f4193; stroke:none;" d="M448.667 740.333L449.333 740.667L448.667 740.333M710.667 740.333L711.333 740.667L710.667 740.333z"/>
<path style="fill:#a76c3f; stroke:none;" d="M715.333 740.667L715.667 741.333L715.333 740.667M157 741L157 742L160 742L157 741M429 741L430 742L429 741z"/>
<path style="fill:#3f4193; stroke:none;" d="M443 741L444 742L443 741M716 741L717 742L716 741z"/>
</svg>
